<svg xmlns="http://www.w3.org/2000/svg" id="Camada_2" viewBox="0 0 579.09 59.71"><defs><style>      .cls-1 {        fill: #fff;        fill-rule: evenodd;      }    </style></defs><g id="Camada_1-2" data-name="Camada_1"><path class="cls-1" d="M43.8,59.71h13.59V0h-13.59v38.04l-14.87-27.08C26,5.6,20.86,0,13.11,0H0v59.71h14.24V20.08l17.33,31.59c2.36,4.26,5.76,8.04,12.22,8.04M69.56,0h17.28v42.09c0,3.64,2.95,6.61,6.59,6.61h13.13V0h13.33v59.71h-35.67c-8.06,0-14.66-6.6-14.66-14.66V0ZM162.28,11.31h0v48.4h-17.83V11.31h-13.51V0h44.84v11.31h-13.51ZM246.35,0h17.65v59.71h-17.65V0ZM275.67,0h16.89v43.99c0,2.72,2.24,4.96,4.96,4.96h8.53v10.76h-21.58c-4.84,0-8.8-3.98-8.8-8.82V0ZM400.52,11.31h0v48.4h-17.84V11.31h-13.52V0h44.85v11.31h-13.5ZM425.15,0h17.66v59.71h-17.66V0ZM353.86,6.63c-2.64-5.18-5.12-6.63-12.37-6.63h-24.15v59.71h14.03V11.34s4.88-1.91,7.16,3.76l2.12,5.33h0s4.86,12.04,4.86,12.04h-8.63v11.24h13.13l6.41,16h18.72l-21.28-53.08ZM557.81,6.63h0l21.27,53.08h-18.71l-6.43-16h-13.1v-11.24h8.61l-4.85-12.03h0s-2.13-5.34-2.13-5.34c-2.27-5.67-7.16-3.76-7.16-3.76v48.37h-14.03V0h24.14c7.25,0,9.73,1.45,12.37,6.63M497.66,59.71h13.58V0h-13.58v38.04l-14.87-27.08c-2.93-5.36-8.05-10.97-15.81-10.97h-13.13v59.71h14.24V20.08l17.34,31.59c2.34,4.26,5.75,8.04,12.23,8.04M184.88,0h33.84c9.02,0,16.4,7.39,16.4,16.4v1.95c0,6.74-4.66,12.43-10.88,14.03l14.45,27.32h-19.78l-12.41-23.49v-4.59h4.63c4.94,0,8.99-4.04,8.99-8.98v-1.23c0-5.59-4.58-10.19-10.19-10.19h-7.39v48.48h-17.66V0Z"></path></g></svg>