<svg xmlns="http://www.w3.org/2000/svg" id="Dimensions" viewBox="0 0 850.39 283.46"><defs><style>      .cls-1 {        fill: #fff;        stroke-width: 0px;      }    </style></defs><path class="cls-1" d="M318.92,166.56l8.98-84.48c1.78-10.21,9.03-15.61,19.1-15.61,8.88,0,16.44,3.79,18.8,13.28l16.73,61.28c0,.44.15.44.15.44.15,0,.3,0,.3-.44l16.43-60.84c2.52-9.48,10.22-13.71,19.25-13.71,9.92,0,17.03,5.54,18.51,16.05l12.29,84.04h-21.91l-9.62-77.03c0-.73-.15-1.17-.74-1.17-.44,0-.74.29-.89.87l-18.51,65.07c-2.08,7.44-7.99,11.09-15.1,11.09s-13.17-3.5-14.95-10.65l-18.51-65.51c-.15-.73-.45-.87-.74-.87-.44,0-.89.29-.89,1.02l-6.76,77.18h-21.92Z"></path><path class="cls-1" d="M590.82,145.46l18.06-8.74c3.26,7.02,10.21,10.61,20.58,10.61,9.33,0,16.43-3.73,16.43-10.61,0-8.03-7.85-9.32-18.21-11.04-14.95-2.44-35.24-7.6-35.24-29.38,0-16.91,15.69-29.82,36.28-29.82,16.43,0,30.65,7.31,37.02,21.07l-18.06,8.74c-3.26-6.16-9.77-10.46-19.84-10.46-8.14,0-13.77,3.73-13.77,9.6,0,7.74,8.29,9.75,19.1,11.61,14.81,2.43,34.35,7.6,34.35,29.53,0,17.34-16.88,29.96-38.05,29.96-17.92,0-32.28-7.31-38.64-21.07"></path><path class="cls-1" d="M683.51,145.46l18.06-8.74c3.26,7.02,10.21,10.61,20.58,10.61,9.33,0,16.43-3.73,16.43-10.61,0-8.03-7.85-9.32-18.21-11.04-14.95-2.44-35.24-7.6-35.24-29.38,0-16.91,15.69-29.82,36.27-29.82,16.43,0,30.65,7.31,37.02,21.07l-18.06,8.74c-3.26-6.16-9.77-10.46-19.84-10.46-8.14,0-13.77,3.73-13.77,9.6,0,7.74,8.29,9.75,19.1,11.61,14.81,2.43,34.35,7.6,34.35,29.53,0,17.34-16.88,29.96-38.05,29.96-17.92,0-32.28-7.31-38.64-21.07"></path><path class="cls-1" d="M544.58,82.23c-3.77-10.65-13.61-15.76-24.11-15.76s-20.18,5.11-23.95,15.76l-29.2,84.33h24.44l6.4-19.99,6.23-19.11,12.63-38.96c.66-2.04,1.8-2.92,3.61-2.92,1.97,0,2.95.87,3.61,2.92l12.47,38.96,6.18,18.97h.05l6.4,20.13h24.44l-29.2-84.33h0Z"></path><path class="cls-1" d="M467.07,177.83h21.76c5.47,11.2,16.52,16.98,31.65,16.98,16.06,0,26.3-5.78,31.77-16.98h21.76c-5.94,24.26-27.12,39.16-53.53,39.16s-47.48-14.9-53.41-39.16"></path><path class="cls-1" d="M200.39,66.79h-21.54v99.22h21.54v-99.22Z"></path><path class="cls-1" d="M297.34,86.69h-29.21v79.32h-21.54v-79.32h-29.2v-19.9h79.95v19.9Z"></path><path class="cls-1" d="M147.5,112.64h-35.76v-25.95h49.71v-19.9h-52.22c-13.57,0-19.03,7.22-19.03,18.57v80.64h21.54v-33.62h35.76v-19.76h0Z"></path></svg>