<svg xmlns="http://www.w3.org/2000/svg" id="Camada_2" viewBox="0 0 594.42 87.47"><defs><style>      .cls-1 {        fill: #fff;      }    </style></defs><g id="Camada_1-2" data-name="Camada_1"><g><path class="cls-1" d="M0,12.86c.99-2.04,1.45-4.3,2.86-6.17C6.03,2.5,10.19.09,15.47.08c19-.06,38-.03,57,.03,8.04.03,15.15,6.87,15.18,14.71.07,19.29.08,38.59,0,57.88-.03,7.59-6.78,14.57-14.48,14.64-19.48.17-38.96.19-58.44-.01-4.31-.05-8.02-1.86-10.91-5.68-1.6-2.12-2.48-4.44-3.83-6.58V12.86ZM34.18,57.21c.72,0,1.44.03,2.16,0,2.94-.14,4.58-1.8,4.51-4.56-.07-2.71-1.71-4.28-4.58-4.36-.72-.02-1.44-.05-2.16-.01-1.3.06-1.69-.47-1.37-1.73,1.29-5.13,2.42-10.3,3.82-15.4,1.48-5.38,7.46-8.97,13.26-8.21,5.62.73,10.22,5.72,10.61,11.16.46,6.39-4.02,13.55-12.31,14.12-3.31.23-4.81,2.2-4.51,5.19.27,2.66,2.07,3.84,5.3,3.78,9.34-.17,18.67-8.26,20.39-17.87,2.56-14.37-8.91-27.11-23.55-25.51-6.65.73-11.98,3.98-15.62,9.59-1.94,2.99-2.77,6.45-3.58,9.89-2.67,11.3-5.37,22.59-8.07,33.88-.79,3.31.36,5.6,3.23,6.36,2.88.76,4.78-.62,5.64-4.19.67-2.76,1.26-5.54,1.92-8.31q.9-3.81,4.91-3.82Z"></path><path class="cls-1" d="M114.14,61.57c.3-6.06-.52-13.42.38-20.75,1.57-12.82,12.52-22,25.68-21.59,12.72.4,22.5,8.39,24.8,20.29,2.53,13.08-5.92,25.61-19.19,28.39-6.08,1.27-12.26.56-18.38.6-2.37.01-3.38.41-3.19,3.04.26,3.54.09,7.11.06,10.67-.03,3.39-1.85,5.22-5.1,5.19-3.19-.03-5.03-1.94-5.04-5.32-.02-6.41,0-12.81,0-20.51ZM133.29,58.88s0-.02,0-.03c2.47,0,4.95.08,7.41-.01,7.89-.31,14.22-6.52,14.55-14.2.34-7.97-5.57-14.77-13.55-15.61-8.3-.87-15.68,4.12-17.1,11.76-1.05,5.63-.13,11.34-.36,17.01-.04,1.06.62,1.09,1.39,1.09,2.55-.01,5.1,0,7.65,0Z"></path><path class="cls-1" d="M470.12,23.05c.39-3.67,1.99-5.2,5.14-5.07,3.17.13,4.59,1.77,4.59,5.35,0,13.05,0,26.09,0,39.14,0,3.47-1.56,5.26-4.62,5.39-2.95.12-4.72-1.59-5.16-5.16-7.09,5.16-14.92,6.71-23.35,4.71-6.07-1.44-11.08-4.68-14.91-9.64-7.14-9.25-6.71-22.19.95-31.06,7.51-8.68,23.09-13.64,37.37-3.65ZM453.29,58.97c9.25,0,16.97-7.33,16.93-16.09-.04-8.83-7.75-16.21-16.88-16.17-9.29.04-16.98,7.29-17.02,16.04-.04,9,7.51,16.23,16.98,16.22Z"></path><path class="cls-1" d="M199.72,46.3c-5.67,0-11.34.08-17.01-.04-2.25-.05-2.28.75-1.69,2.5,2.56,7.58,11.79,11.95,20.22,9.48,2.56-.75,4.83-1.98,6.81-3.79,2.49-2.27,5.12-2.22,7.14,0,2.03,2.23,1.74,4.63-.83,7.01-10.34,9.55-28.17,8.9-37.38-1.35-9.44-10.51-8.26-27.99,2.86-36.98,8.13-6.57,17.56-7.37,27.05-3.48,9.14,3.75,14.21,10.94,15.02,20.81.32,3.92-1.49,5.76-5.42,5.8-5.59.05-11.18.01-16.77.01,0,.01,0,.03,0,.04ZM181.2,37.01c9.81,0,19.36-.02,28.92.02,1.89,0,1.15-.9.76-1.73-3.05-6.57-11.27-10.06-19.06-8.01-5.17,1.36-8.77,4.46-10.61,9.73Z"></path><path class="cls-1" d="M340.32,17.54c14.71.04,26.51,11.44,26.45,25.55-.06,13.74-11.89,25.11-26.15,25.15-14.96.04-27.02-11.52-26.84-25.74.18-13.88,12-25,26.54-24.97ZM340.24,58.98c9.29.02,16.9-7.22,16.89-16.06-.01-8.86-7.59-16.13-16.85-16.18-9.11-.04-16.78,7.21-16.81,15.9-.04,9.19,7.27,16.31,16.77,16.33Z"></path><path class="cls-1" d="M381.74,22.79c6.39-4.56,13.18-5.74,20.49-4.26,10.83,2.19,18.96,11.8,19.13,22.79.12,7.35.04,14.71.02,22.07-.01,3-1.85,4.86-4.67,4.87-2.94,0-4.87-1.9-4.88-4.96-.03-6.96.03-13.92,0-20.88-.03-6.85-3.91-12.32-10.05-14.32-6.61-2.15-13.3-.02-17.43,5.49-2.16,2.88-2.63,6.24-2.67,9.66-.08,6.56-.16,13.13.02,19.69.08,2.95-1.45,5.12-4.77,5.29-2.99.16-4.85-1.89-4.85-5.2-.02-13.45-.02-26.89,0-40.34,0-3.34,1.6-5.08,4.61-5.14,3.15-.07,4.76,1.52,5.07,5.24Z"></path><path class="cls-1" d="M287.87,17.52c6.04.01,11.36,1.68,16.2,4.85,2.7,1.77,3.38,4.37,1.89,6.69-1.5,2.33-4.49,2.9-7.1,1.23-4.64-2.98-9.58-4.18-15.02-2.7-1.16.31-2.25.77-3.21,1.5-2.78,2.11-2.53,5.45.57,7.09,2.95,1.57,6.25,1.79,9.46,2.29,3.55.55,7.06,1.2,10.29,2.87,4.8,2.47,7.52,6.35,7.6,11.71.08,5.1-2.54,8.9-6.81,11.51-9.55,5.85-22.86,4.5-31.1-3.05-.58-.53-1.16-1.09-1.63-1.73-1.6-2.15-1.44-4.93.32-6.46,1.93-1.67,5.02-1.58,6.95.23,5.17,4.83,11.07,6.68,17.99,4.36.82-.28,1.62-.69,2.33-1.19,1.34-.95,2.29-2.14,2.11-3.96-.19-1.81-1.29-2.83-2.87-3.45-2.61-1.03-5.38-1.4-8.14-1.8-3.47-.5-6.96-.97-10.18-2.44-4.95-2.26-7.94-6.06-8.51-11.44-.57-5.35,1.64-9.51,6.19-12.46,3.92-2.54,8.23-3.69,12.67-3.65Z"></path><path class="cls-1" d="M236.9,23.48c5.88-5.32,12.51-6.89,19.93-5.49,1.34.25,2.61.72,3.73,1.52,2,1.43,2.56,3.09,1.65,5.11-.93,2.07-2.65,2.65-4.73,2.23-3.55-.73-7.08-.88-10.68-.27-6.66,1.12-10.02,4.96-10.01,11.64,0,8.22,0,16.44,0,24.67,0,3.43-1.63,5.28-4.67,5.35-3.14.07-4.88-1.83-4.89-5.36,0-13.2,0-26.41,0-39.61,0-3.76,1.43-5.56,4.55-5.66,3.31-.11,4.87,1.57,5.12,5.88Z"></path><path class="cls-1" d="M518.62,40.24c0-6.8-.04-13.59,0-20.39.07-10.63,6.9-17.56,17.67-17.97,1.43-.06,2.88-.1,4.3.01,1.65.14,2.62,1.14,2.68,2.79.06,1.59-.63,2.84-2.34,3.07-1.73.23-3.49.2-5.24.34-6.21.52-10.34,5.04-10.39,11.14-.01,1.57.54,1.82,1.92,1.78,2.79-.09,5.59-.06,8.38-.02,2.4.03,3.7,1.15,3.69,3.07,0,2-1.21,3.02-3.67,3.04-2.79.02-5.59.09-8.38-.02-1.56-.07-2.01.38-2,1.96.1,11.22.1,22.44.12,33.67,0,2.78-1.7,4.28-4.18,3.7-1.78-.41-2.62-1.49-2.61-3.4.06-7.59.03-15.17.03-22.76Z"></path><path class="cls-1" d="M569.89,27.92c0-7.44,0-14.87,0-22.31,0-2.71,1.01-3.8,3.4-3.78,2.3.02,3.34,1.19,3.35,3.89.02,4.43.08,8.86-.04,13.29-.04,1.61.51,2,2.02,1.94,2.79-.1,5.59-.05,8.39-.02,2.28.03,3.51,1.12,3.52,3,0,1.84-1.25,3.04-3.48,3.1-2.79.07-5.59.09-8.38-.01-1.44-.05-2.08.18-2.05,1.86.08,6.64-.05,13.29-.02,19.93.03,6.79,4.41,11.19,11.31,11.49,1.2.05,2.4-.03,3.59.08,1.73.15,2.8,1.11,2.92,2.87.12,1.79-.88,3.02-2.57,3.15-8.46.64-17.55-1.86-21.21-11.74-.73-1.96-.78-4.03-.78-6.09,0-6.88,0-13.76,0-20.65.02,0,.04,0,.05,0Z"></path><path class="cls-1" d="M490.42,34c0-9.64,0-19.28-.01-28.92,0-1.48.2-2.87,1.36-3.89,1.36-1.2,2.97-1.5,4.68-.86,1.64.61,2.56,1.82,2.66,3.58.03.55.05,1.1.05,1.66,0,19.12,0,38.24.01,57.36,0,1.71-.12,3.33-1.68,4.44-1.51,1.08-3.16,1.14-4.75.36-1.74-.86-2.32-2.44-2.32-4.34.03-9.8.01-19.59.01-29.39Z"></path><path class="cls-1" d="M559.3,43.71c0,6.32.01,12.65,0,18.97,0,2.5-1.22,3.78-3.52,3.81-2.33.02-3.51-1.2-3.51-3.78-.01-12.65-.01-25.29,0-37.94,0-2.56,1.19-3.83,3.48-3.81,2.3.01,3.53,1.29,3.54,3.78.02,6.32,0,12.65,0,18.97Z"></path><path class="cls-1" d="M559.32,14.13c-.05,1.95-1.8,3.54-3.77,3.43-1.92-.11-3.34-1.68-3.3-3.63.05-1.95,1.57-3.45,3.49-3.44,2.02,0,3.63,1.65,3.57,3.64Z"></path></g></g></svg>