<svg xmlns="http://www.w3.org/2000/svg" id="Camada_1" data-name="Camada 1" viewBox="0 0 850.39 283.46"><defs><style>      .cls-1 {        fill: #fff;        stroke-width: 0px;      }    </style></defs><path class="cls-1" d="M373.68,43.92l-1.41.2v17.51l1.91.05c8.23.35,12.55-2.46,13.05-8.38.45-5.67-2.66-8.98-8.93-9.43-1.81-.1-3.86-.1-4.62.05ZM381.66,48.08c2.56,1.61,2.96,6.12.75,8.58-1.15,1.3-1.91,1.66-4.01,1.86l-2.61.25v-5.82c0-5.12.1-5.82.9-5.97,1.15-.25,3.61.3,4.97,1.1Z"></path><path class="cls-1" d="M425.22,44.52c-2.41,1.1-3.46,2.21-4.52,4.72-1.41,3.36-.65,7.38,1.86,9.89,1.91,1.91,3.51,2.61,6.22,2.61,7.33,0,11.04-9.48,5.87-15.16-2.66-2.96-5.92-3.66-9.43-2.06ZM432,48.54c.8.8,1.61,2.06,1.81,2.81.55,2.16-.65,5.17-2.46,6.27-2.41,1.51-4.17,1.3-6.17-.7-1.41-1.41-1.71-2.11-1.71-3.76,0-2.36,1.05-4.77,2.36-5.52.5-.3,1.76-.55,2.81-.55,1.46,0,2.26.35,3.36,1.46Z"></path><path class="cls-1" d="M459.75,44.12c-7.43,2.26-7.48,15.56-.05,17.56,2.66.7,6.22-.15,8.18-1.91l1.41-1.35-1.1-.5c-.75-.3-1.61-.3-2.76.1-2.01.75-4.06.75-5.37.1-.8-.45-2.46-2.91-2.46-3.76,0-.15,2.71-.25,5.97-.25,6.72,0,6.62.05,6.07-3.86-.75-4.92-5.07-7.58-9.89-6.12ZM465.17,48.03c.5.45,1,1.3,1.2,1.91.3,1.15.25,1.15-4.17,1.15s-4.52-.05-4.27-.95c.8-3.06,5.07-4.32,7.23-2.11Z"></path><path class="cls-1" d="M392.2,45.67c-.7.9-1.56,2.31-2.01,3.16-.9,1.76-2.66,7.73-3.11,10.44l-.3,1.91,1.91-.15c1.76-.15,1.91-.3,2.06-1.81l.15-1.61h8.48v1.76c0,1.71.05,1.76,2.01,1.76,1.1,0,2.01-.1,2.01-.25,0-1.51-1.86-8.48-2.81-10.69-1.96-4.47-3.46-6.12-5.47-6.12-1.35,0-1.96.35-2.91,1.61ZM396.57,49.94c2.31,4.72,2.36,4.67-1.41,4.67-1.81,0-3.31-.2-3.31-.45,0-.9,2.66-6.57,3.06-6.57.25,0,.95,1.05,1.66,2.36Z"></path><path class="cls-1" d="M404.4,52.6v8.53h3.51v-5.92l.05-5.87,2.26,2.51c1.2,1.35,2.96,4.01,3.86,5.87,1.51,3.11,1.71,3.36,3.26,3.36l1.61.05v-17.06h-3.51v4.01c0,2.36-.2,4.01-.5,4.01-.25,0-.5-.25-.5-.5,0-.3-1.56-2.11-3.51-4.01-2.76-2.81-3.76-3.51-5.02-3.51h-1.51v8.53Z"></path><path class="cls-1" d="M438.52,52.6v8.53h3.51v-5.92l.05-5.87,2.26,2.51c1.2,1.35,2.96,4.01,3.86,5.87,1.51,3.16,1.71,3.41,3.26,3.41h1.61v-17.06h-3.51v4.01c0,2.36-.2,4.01-.5,4.01-.25,0-.5-.2-.5-.5,0-.25-1.56-2.06-3.51-4.01-2.76-2.81-3.76-3.51-5.02-3.51h-1.51v8.53Z"></path><path class="cls-1" d="M394.61,64.59c.45.8,8.88,5.37,12.29,6.72,7.83,3.01,16.26,3.61,23.84,1.61,2.91-.75,14.05-5.97,16.01-7.53,1.56-1.15.6-1.41-1.25-.3-.95.55-3.26,1.61-5.17,2.31-13.25,4.97-29.01,4.47-41.4-1.3-4.57-2.11-4.77-2.21-4.32-1.51Z"></path><path class="cls-1" d="M664.85,86.93c-24.39,4.32-43.86,18.67-54.8,40.35-9.23,18.37-10.89,41.25-4.37,61.32,7.33,22.63,24.44,40,46.67,47.37,9.28,3.11,12.5,3.56,24.54,3.56,9.48,0,11.44-.15,16.01-1.15,14.7-3.31,26.95-9.94,37.19-20.22,10.34-10.34,17.56-23.84,20.58-38.34,5.57-26.6-2.11-53.95-20.37-72.21-9.89-9.94-22.88-16.96-37.34-20.12-5.12-1.15-22.83-1.46-28.1-.55ZM687.13,117.34c15.46,3.91,26.8,15.86,31.52,33.02.9,3.26,1.1,5.32,1.1,12.9.05,11.04-.8,15.11-5.07,23.84-2.61,5.27-3.26,6.17-7.88,10.79-3.66,3.66-6.02,5.57-8.58,6.88-20.98,10.89-44.91,4.32-57.06-15.71-4.82-7.98-6.93-16.06-6.93-26.55,0-21.73,10.74-38.24,28.86-44.41,6.88-2.31,16.71-2.61,24.04-.75Z"></path><path class="cls-1" d="M97.98,88.98c.15.4,12.29,20.68,27,45.06l26.75,44.26.25,22.58.25,22.58,1.61,3.36c1.86,3.96,4.92,7.13,8.68,8.88,2.56,1.2,3.31,1.3,11.44,1.46l8.63.15v-58.06l22.38-37.09c12.29-20.42,22.78-38.14,23.29-39.39,2.51-6.37,1.41-10.89-3.26-13.45-1.25-.7-3.21-.85-12.8-.85h-11.29l-16.61,29.71c-9.13,16.36-16.71,29.86-16.86,30.01-.1.15-5.82-9.74-12.7-21.98-15.61-27.7-15.26-27.15-18.42-30.36-3.46-3.46-9.33-6.42-14.2-7.13-1.91-.25-8.23-.5-14-.5-9.08,0-10.39.1-10.14.75Z"></path><path class="cls-1" d="M345.78,156.08l.15,67.4,1.46,3.16c1.86,4.06,6.17,8.13,10.19,9.64,2.51,1,3.96,1.15,10.94,1.2l8.03.05.15-59.87.1-59.82h13.95c7.63,0,15.36.25,17.16.55,4.67.75,8.98,3.01,12.29,6.52,3.36,3.51,5.22,7.38,5.92,12.29,1.15,8.03-1.25,15.41-6.67,20.42-5.67,5.27-9.74,6.32-23.69,6.37h-8.43v28.7l12.95-.25c13.3-.25,15.66-.55,22.68-2.91,16.76-5.52,28.4-17.51,33.02-33.92,1.25-4.67,1.35-5.47,1.35-15.46,0-12.09-.7-15.76-4.27-23.23-6.72-14.05-16.86-22.33-32.97-26.8-3.81-1.05-4.82-1.1-39.19-1.25l-35.23-.2.1,67.4Z"></path><path class="cls-1" d="M472.24,156.08l.15,67.4,1.35,2.86c2.76,5.92,8.38,9.99,15,10.94,1.76.25,5.62.5,8.58.5h5.42l.1-23.99.15-23.94h24.54l11.49,18.32c6.27,10.09,12.4,19.27,13.55,20.47,3.11,3.21,7.63,5.97,12.14,7.48,3.81,1.2,4.72,1.3,16.76,1.56,10.69.2,12.65.1,12.35-.45-.25-.4-7.98-12.4-17.21-26.7-9.18-14.3-16.66-26.1-16.56-26.2.05-.05,1.61-.85,3.41-1.76,6.88-3.46,13.55-8.88,17.87-14.55,2.26-3.01,5.62-10.64,6.77-15.31,2.01-8.58,2.11-22.48.2-29.91-3.01-11.64-10.69-21.58-21.33-27.65-3.01-1.71-8.13-3.71-12.9-5.02-3.81-1.05-4.77-1.1-42.96-1.25l-38.99-.2.1,67.4ZM542.9,119.09c9.28,2.51,14.2,7.73,15.61,16.66,1.56,9.69-2.71,18.62-10.79,22.43-5.17,2.46-8.83,2.81-27.65,2.81h-17.31v-43.26l18.47.25c15.51.2,18.92.35,21.68,1.1Z"></path><path class="cls-1" d="M263.63,121.95c-22.88,2.61-41.65,17.71-48.93,39.44-3.96,11.84-4.06,26.55-.25,38.59,5.37,17.11,19.57,31.41,36.63,36.93,6.27,2.06,11.74,2.86,19.07,2.86s12.8-.8,19.07-2.86c15.86-5.17,29.01-17.31,35.38-32.82,5.32-12.85,5.97-29.36,1.71-42.56-7.23-22.18-26.2-37.24-49.93-39.7-5.72-.55-7.08-.55-12.75.1ZM277.28,150.16c4.67,1.25,8.23,3.41,12.19,7.33,6.47,6.42,9.23,13.55,9.23,23.59s-2.76,17.21-8.93,23.34c-5.42,5.37-11.34,7.78-19.02,7.78s-14.05-2.61-19.67-8.28c-8.83-8.88-11.59-22.93-7.03-36.08,2.96-8.58,10.04-15.36,18.37-17.56,3.46-.95,11.49-1,14.85-.1Z"></path></svg>