<svg xmlns="http://www.w3.org/2000/svg" id="Camada_1" data-name="Camada 1" viewBox="0 0 850.39 283.46"><defs><style>      .cls-1 {        fill: #fff;        stroke-width: 0px;      }    </style></defs><path class="cls-1" d="M306.11,117.51c0-13.1.01-26.19,0-39.29,0-7.35-.07-14.69-.1-22.04,0-.88-.04-1.76.17-2.62.27-1.1.87-1.85,2.02-2.13,1.17-.28,2.34-.49,3.55-.46,1.41.03,2.66.48,3.74,1.38.43.36.83.75,1.24,1.13,17.91,17.2,35.81,34.41,53.72,51.61,5.41,5.2,10.83,10.39,16.25,15.59.46.44.93.87,1.41,1.3.4.36.65.4.82.27.24-.19.18-.42.18-.64,0-2.32,0-4.63,0-6.95,0-14.53,0-29.07,0-43.6,0-3.99-.06-7.98-.06-11.98,0-.96.04-1.92.15-2.87.26-2.16,1.68-2.99,3.29-3.25.55-.09,1.11-.08,1.67-.07,2,0,3.99.03,5.99.03,3.99,0,7.99-.02,11.98-.03.88,0,1.76-.03,2.63.02,2.1.12,3.56,1.51,3.82,3.6.05.39.06.8.07,1.19.01.56,0,1.12,0,1.68,0,40.01,0,80.02,0,120.03,0,1.2-.02,2.4-.14,3.59-.15,1.56-1.04,2.46-2.6,2.67-.87.11-1.75.13-2.62.13-1.76,0-3.25-.72-4.57-1.84-.42-.36-.81-.77-1.21-1.16-9.24-9.28-18.49-18.56-27.73-27.84-2.42-2.43-4.83-4.88-7.26-7.31-5.92-5.94-11.84-11.88-17.76-17.82-4.11-4.13-8.23-8.26-12.33-12.4-1.85-1.87-3.67-3.78-5.5-5.67-.22-.23-.42-.51-.77-.51-.14,0-.31.07-.4.16-.09.1-.15.28-.15.43-.02.8-.02,1.6-.02,2.39,0,21.32,0,42.64,0,63.97,0,.8,0,1.6-.03,2.4-.03,1.55-1.21,3.05-2.95,3.26-.55.07-1.11.11-1.67.11-6.63,0-13.26.01-19.89,0-.71,0-1.44-.06-2.14-.19-1.39-.27-2.45-1.37-2.61-2.77-.12-1.03-.13-2.07-.14-3.11-.01-4.55,0-9.1,0-13.66,0-5.59.01-11.18,0-16.77-.03-9.98-.07-19.96-.1-29.94.01,0,.02,0,.03,0Z"></path><path class="cls-1" d="M563.91,183.92c-2.95.05-5.91.09-8.86.14-.96.02-1.91-.05-2.86-.22-1.83-.33-3.27-1.26-4.3-2.78-.49-.72-.87-1.52-1.23-2.32-1.83-3.99-3.63-7.98-5.46-11.97-.3-.65-.65-1.28-1-1.9-.07-.12-.24-.22-.37-.24-.48-.05-.95-.06-1.43-.06-3.51,0-7.03,0-10.54,0-11.9,0-23.8,0-35.7,0-.72,0-1.44,0-2.16.01-.35,0-.61.17-.77.47-.26.5-.49,1-.72,1.51-1.91,4.21-3.83,8.42-5.71,12.65-.49,1.11-1.1,2.12-1.99,2.95-.97.89-2.09,1.45-3.39,1.64-.63.09-1.27.16-1.91.17-4.87.05-9.74.08-14.61.1-1.68,0-3.35-.04-5.03-.1-.63-.02-1.29-.08-1.89-.25-1.69-.48-2.34-1.77-2.19-3.25.09-.96.47-1.85.88-2.72,1.55-3.32,3.1-6.65,4.65-9.98,17.06-36.65,34.12-73.3,51.18-109.96.57-1.23,1.1-2.48,1.72-3.68.36-.7.83-1.36,1.32-1.98.46-.58,1.12-.91,1.84-1.05,1.03-.19,2.07-.15,3.09.11,1.06.27,1.88.87,2.4,1.83.42.77.8,1.56,1.17,2.36,7.37,15.83,14.74,31.67,22.1,47.5,11.57,24.87,23.14,49.74,34.71,74.62.37.79.75,1.58.94,2.45.38,1.81-.57,3.43-2.38,3.79-.85.17-1.74.21-2.62.22-2.95.03-5.91,0-8.87,0,0-.01,0-.03,0-.04ZM514.67,138.9c3.99,0,7.98,0,11.97,0,.56,0,1.11-.04,1.67-.07.18,0,.42-.38.35-.53-.09-.22-.18-.44-.28-.66-4.36-9.48-8.73-18.96-13.1-28.43-.1-.21-.24-.41-.37-.6-.04-.06-.12-.1-.19-.13-.13-.07-.24,0-.33.19-.17.36-.34.72-.5,1.08-4.15,9.14-8.3,18.28-12.45,27.41-.16.36-.31.73-.47,1.1-.07.16.16.54.33.55.55.03,1.11.08,1.66.08,3.91,0,7.82,0,11.73,0Z"></path><path class="cls-1" d="M100.24,118.67c0-9.18,0-18.37,0-27.55,0-10.54-.03-21.08-.04-31.62,0-.64,0-1.28,0-1.92,0-.4.03-.8.09-1.19.35-2.1,1.57-3.25,3.68-3.46.55-.05,1.12-.04,1.68-.04,12.78,0,25.56,0,38.33,0,2.16,0,4.31.03,6.47.08,3.2.07,6.35.51,9.47,1.24,12.25,2.86,23.05,11.59,28.04,24.53,1.89,4.89,2.84,9.94,2.9,15.19.06,5.74-.83,11.3-2.99,16.62-5.21,12.86-14.61,21.05-27.98,24.65-3.17.85-6.42,1.2-9.72,1.18-6.15-.03-12.3,0-18.44,0-2.35,0-2.25-.15-2.25,2.16,0,13.26,0,26.51,0,39.77,0,.8.02,1.6-.05,2.39-.13,1.59-1.27,2.84-2.83,3.13-.55.1-1.11.14-1.66.15-6.71,0-13.42.01-20.13,0-.63,0-1.28-.06-1.9-.19-1.18-.25-2-.96-2.36-2.13-.14-.45-.25-.93-.28-1.4-.05-.72-.02-1.44-.02-2.16,0-19.8,0-39.61,0-59.41ZM129.53,94.69c0,4.15,0,8.31,0,12.46,0,.48.03.95.09,1.42.02.12.18.29.31.33.3.08.63.13.94.13,5.27.02,10.54.05,15.81.05,1.04,0,2.08-.02,3.11-.1,3.06-.22,5.71-1.37,7.89-3.56,1.55-1.56,2.64-3.4,3.39-5.44,1.29-3.5,1.25-7.04.12-10.57-1.71-5.38-6.62-8.7-11.63-8.81-1.2-.03-2.39-.07-3.59-.07-4.39,0-8.79,0-13.18,0-.72,0-1.44.02-2.15.05-.23.01-.48.07-.7.15-.13.05-.3.2-.32.32-.07.39-.1.78-.1,1.18,0,4.15,0,8.31,0,12.46Z"></path><path class="cls-1" d="M622.65,130.58c0-15.66,0-31.31,0-46.97,0-.8-.01-1.6-.03-2.4,0-.3-.29-.57-.63-.58-.72-.02-1.44-.04-2.15-.04-7.19,0-14.38,0-21.57,0-.56,0-1.12.03-1.68-.01-.55-.04-1.1-.14-1.64-.26-1.44-.32-2.48-1.71-2.51-3.13-.03-1.44-.08-2.87-.08-4.31,0-4.71.03-9.42.05-14.14,0-.64,0-1.28.01-1.92.01-.4.03-.8.12-1.19.27-1.16.89-2.05,2.08-2.41.45-.14.92-.27,1.39-.3.96-.06,1.92-.05,2.87-.05,25.72,0,51.45,0,77.17,0,.8,0,1.6,0,2.4.02.4,0,.8.02,1.19.09,1.67.31,2.69,1.37,2.89,3.06.07.55.06,1.12.06,1.67,0,5.99,0,11.98,0,17.97,0,.64.02,1.29-.11,1.91-.26,1.34-.96,2.37-2.4,2.67-.62.13-1.25.24-1.88.29-.56.05-1.12.01-1.68.01-7.03,0-14.06,0-21.09,0-.56,0-1.12,0-1.68,0-1.33.01-1.39.06-1.4,1.29,0,.64,0,1.28,0,1.92,0,28.44,0,56.87,0,85.31,0,3.04,0,6.07,0,9.11,0,.64.02,1.28-.05,1.91-.06.55-.19,1.1-.38,1.62-.42,1.14-1.25,1.83-2.45,2.03-.63.1-1.27.16-1.91.17-4.07.05-8.15.09-12.22.1-2.71,0-5.43-.05-8.14-.1-.64-.01-1.28-.09-1.9-.2-1.01-.18-1.72-.8-2.15-1.72-.34-.73-.48-1.51-.48-2.32,0-1.76-.03-3.51-.03-5.27,0-14.62,0-29.23,0-43.85Z"></path><path class="cls-1" d="M258,118.31c0,19.08,0,38.16,0,57.24,0,1.12.04,2.23.04,3.35,0,.64-.02,1.28-.1,1.91-.21,1.59-1.34,2.76-2.95,3.03-.55.09-1.11.12-1.67.13-6.79,0-13.57,0-20.36,0-.56,0-1.12-.04-1.66-.14-1.37-.27-2.3-1.08-2.71-2.41-.17-.53-.24-1.09-.29-1.64-.05-.47-.01-.96-.01-1.44,0-39.75,0-79.51,0-119.26,0-1.04-.04-2.08.22-3.1.08-.31.12-.63.24-.93.31-.77.83-1.36,1.62-1.65.68-.25,1.36-.46,2.09-.46.8,0,1.6-.04,2.39-.04,5.75,0,11.5,0,17.25,0,.72,0,1.44,0,2.15.06.47.04.94.16,1.39.3,1.28.38,1.97,1.29,2.23,2.56.09.47.11.95.13,1.43.02.64,0,1.28,0,1.92,0,19.72,0,39.43,0,59.15Z"></path><path class="cls-1" d="M720.92,118.44c0-19.4,0-38.81,0-58.21,0-1.12-.04-2.24-.03-3.35.02-2.32,1.57-3.94,3.87-3.98,2.4-.03,4.79,0,7.19,0,3.99,0,7.99,0,11.98,0,.88,0,1.76.01,2.64,0,.66,0,1.26.21,1.84.48.91.44,1.5,1.16,1.8,2.12.28.92.41,1.87.39,2.83-.02,1.2-.04,2.4-.04,3.59,0,38.49,0,76.98,0,115.47,0,.64.04,1.28-.01,1.92-.06.71-.14,1.43-.31,2.12-.31,1.28-1.18,2.08-2.47,2.32-.94.17-1.9.26-2.86.26-6.07,0-12.14-.03-18.21-.06-.96,0-1.92-.05-2.86-.17-1.76-.22-2.9-1.76-2.91-3.29,0-.48,0-.96,0-1.44,0-20.2,0-40.41,0-60.61h0Z"></path><path class="cls-1" d="M678.94,225.03c-.69-.08-1.32-.13-1.95-.22-.34-.05-.59-.27-.66-.6-.15-.7-.29-1.41-.4-2.12-.38-2.44-.74-4.89-1.11-7.33-.03-.18-.12-.29-.32-.27-.15.01-.36.04-.42.14-.35.53-.68,1.07-.98,1.64-1.29,2.47-2.56,4.96-3.85,7.43-.22.42-.46.84-.75,1.22-.48.64-1.34.59-1.83-.09-.32-.45-.59-.95-.85-1.44-1.3-2.47-2.58-4.95-3.88-7.41-.26-.49-.56-.96-.88-1.42-.07-.1-.28-.1-.42-.13-.03,0-.1.1-.12.17-.14.62-.3,1.24-.4,1.87-.38,2.52-.73,5.05-1.1,7.58-.1.68-.36.9-1.14.93-.56.02-1.12.04-1.68.04-2.16,0-4.31,0-6.47,0-.24,0-.48,0-.72-.01-.87-.03-1.52-.46-1.93-1.21-.31-.56-.57-1.14-.83-1.72-.22-.48-.57-.77-1.1-.77-2.71,0-5.43,0-8.14,0-.54,0-.89.32-1.11.78-.24.5-.44,1.02-.68,1.52-.47.95-1.25,1.44-2.31,1.42-1.2-.02-2.39-.09-3.58-.15-.19,0-.39-.32-.31-.52.28-.74.53-1.5.87-2.22,3.08-6.66,6.17-13.3,9.26-19.95.07-.14.14-.29.21-.43.41-.86.86-1.68,1.8-2.09.78.48,1.25,1.21,1.63,2.02.44.94.88,1.88,1.32,2.82,2.65,5.71,5.29,11.43,7.95,17.14.23.5.54.96.83,1.44.03.05.15.05.23.05.06,0,.16-.02.18-.05.13-.37.3-.74.37-1.13.54-3.14,1.07-6.29,1.6-9.43.61-3.62,1.23-7.23,1.82-10.85.11-.65.36-1.22.67-1.78.26-.47,1.13-.49,1.44-.02.35.53.68,1.08.98,1.64,1.93,3.58,3.86,7.16,5.78,10.74,1.3,2.41,1.44,2.6,1.68,2.42.87-.63,1.2-1.65,1.69-2.54,1.94-3.57,3.85-7.16,5.78-10.74.23-.42.46-.84.74-1.22.24-.32.59-.52,1.02-.57.25-.03.75.18.82.39.18.61.4,1.22.5,1.84.54,3.14,1.05,6.29,1.58,9.44.56,3.3,1.14,6.6,1.7,9.9.14.86.21,1.74.29,2.62.06.63-.28,1.02-.97,1.11-.63.08-1.27.12-1.86.18ZM641.07,216.22s0,0,0,.01c.71,0,1.43,0,2.14,0,.2,0,.41-.3.33-.48-.72-1.58-1.45-3.17-2.18-4.75-.05-.1-.19-.16-.31-.21-.03-.01-.13.09-.17.15-.74,1.58-1.47,3.16-2.2,4.74-.1.23.04.53.25.53.71,0,1.43,0,2.14,0Z"></path><path class="cls-1" d="M158.67,224.87c-.24,0-.48,0-.72,0-1.78,0-1.95.11-2.2-1.93-.3-2.45-.71-4.89-1.09-7.34-.06-.39-.22-.76-.35-1.14-.01-.03-.13-.04-.2-.04-.08,0-.19,0-.23.04-.19.25-.4.5-.54.78-1.3,2.47-2.59,4.94-3.87,7.42-.18.35-.3.74-.46,1.1-.13.29-.27.58-.44.85-.53.85-1.88.87-2.44.05-.13-.2-.26-.4-.36-.62-1.38-3.05-3.06-5.95-4.58-8.93-.14-.27-.38-.5-.61-.7-.06-.05-.39.05-.4.11-.24,1.41-.46,2.83-.68,4.24-.29,1.81-.57,3.62-.87,5.43-.08.49-.3.65-.83.65-1.36,0-2.71,0-4.07,0-.28,0-.56-.32-.54-.66.06-.87.09-1.76.23-2.62.74-4.57,1.52-9.13,2.29-13.69.42-2.52.85-5.03,1.29-7.55.1-.6.57-.92,1.23-.85.32.03.63.13.81.43.17.27.32.55.47.83,2.3,4.29,4.6,8.57,6.9,12.86.19.34.42.67.67.97.06.08.35.09.39.04.41-.59.82-1.17,1.16-1.8,1.75-3.22,3.48-6.46,5.22-9.69.53-.98,1.06-1.97,1.6-2.94.11-.2.3-.37.46-.54.2-.21.92-.16,1.13.06.33.36.55.77.64,1.25.27,1.49.55,2.98.8,4.47.72,4.25,1.42,8.5,2.14,12.74.24,1.42.51,2.83.73,4.24.1.63.09,1.27.14,1.9.01.16-.28.51-.43.51-.8,0-1.6,0-2.39,0,0,.02,0,.03,0,.05Z"></path><path class="cls-1" d="M749.25,224.87c-.24,0-.48,0-.72,0-1.74,0-1.94.15-2.2-1.93-.3-2.45-.72-4.89-1.09-7.34-.02-.16-.07-.31-.1-.47-.11-.52-.27-.72-.47-.7-.29.03-.4.25-.51.44-.4.69-.78,1.39-1.15,2.1-1.18,2.26-2.34,4.53-3.52,6.8-.26.49-.52.98-.97,1.35-.38.32-.96.34-1.28-.05-.35-.43-.69-.88-.95-1.36-1.31-2.46-2.59-4.94-3.89-7.41-.33-.63-.73-1.22-1.11-1.83-.04-.06-.15-.14-.2-.12-.14.06-.27.14-.38.24-.05.04-.05.15-.06.23-.38,2.6-.75,5.21-1.14,7.81-.08.55-.21,1.1-.33,1.64-.07.32-.35.56-.66.57-.24.01-.48.02-.72.02-.88,0-1.76,0-2.63,0-1.29,0-1.64.08-1.39-1.69.18-1.26.37-2.53.58-3.78.89-5.27,1.79-10.54,2.68-15.8.08-.47.1-.95.2-1.42.12-.62.26-1.25.45-1.86.25-.8,1.11-1.03,1.71-.44.28.27.53.6.72.94,1.11,2.03,2.19,4.07,3.29,6.11,1.13,2.11,2.26,4.22,3.4,6.32.23.42.5.81.75,1.21.12.19.49.23.59.07.42-.67.87-1.33,1.25-2.03,1.98-3.64,3.94-7.3,5.9-10.95.19-.35.33-.74.57-1.04.24-.3.56-.56.88-.79.43-.3,1.01-.13,1.21.32.13.29.26.58.32.89.29,1.49.58,2.97.83,4.47.96,5.66,1.9,11.32,2.85,16.99.04.24.07.47.09.71.13,1.6.14,1.82-1.59,1.77-.4-.01-.8,0-1.2,0Z"></path><path class="cls-1" d="M298.83,224.96c-.71-.04-1.43-.07-2.14-.13-.12-.01-.3-.15-.34-.27-.19-.61-.4-1.22-.51-1.84-.2-1.1-.35-2.2-.51-3.31-.17-1.18-.31-2.37-.51-3.55-.09-.51.1-1.16-.56-1.45-.59.22-.74.79-.99,1.27-1.26,2.4-2.5,4.8-3.76,7.2-.3.56-.6,1.13-.97,1.64-.23.3-.6.51-.92.74-.21.15-.71.06-.87-.16-.24-.32-.48-.64-.66-.98-1.3-2.46-2.58-4.94-3.89-7.4-.33-.63-.71-1.24-1.07-1.86-.13-.22-.51-.42-.59-.32-.09.12-.22.24-.25.37-.13.62-.24,1.25-.33,1.88-.37,2.44-.72,4.89-1.08,7.33-.06.42-.4.74-.8.74-1.36,0-2.71,0-4.07,0-.41,0-.72-.34-.7-.78.02-.48.02-.96.1-1.43,1.02-5.97,2.05-11.94,3.07-17.91.23-1.34.42-2.68.64-4.01.04-.23.13-.45.22-.67.24-.61,1.18-.81,1.6-.32.31.36.58.76.81,1.17,1.63,3.01,3.25,6.03,4.88,9.05.83,1.54,1.68,3.07,2.53,4.61.17.31.53.28.73-.04.2-.34.41-.68.59-1.03,2.15-4,4.29-8,6.44-12,.23-.42.44-.85.72-1.23.18-.24.47-.42.73-.59.42-.25,1.08-.03,1.21.41.18.61.37,1.22.48,1.85.53,3.06,1.03,6.13,1.54,9.19.58,3.46,1.17,6.91,1.73,10.37.15.94.19,1.9.27,2.85.03.34-.24.58-.6.59-.72,0-1.44,0-2.15,0,0,.02,0,.03,0,.05Z"></path><path class="cls-1" d="M251.51,199.45c5.95-.27,12.84,4.72,12.88,12.93.04,7.58-6.04,13.04-13.09,13-6.64-.04-12.83-4.98-12.85-12.97-.02-8.58,7.12-13.29,13.06-12.96ZM251.39,205.25c-3.71-.14-7.11,2.93-7.12,7.09,0,3.87,2.75,7.16,7.02,7.2,4.27.05,7.29-3.13,7.25-7.22-.05-4.31-3.5-7.21-7.15-7.07Z"></path><path class="cls-1" d="M365.56,199.45c6.26-.29,13.03,4.9,13,13.05-.02,7.27-5.73,12.86-12.96,12.89-7.29.03-13.06-5.72-12.99-13.08.07-7.98,6.77-13.15,12.95-12.85ZM358.47,212.5c-.06,3.63,2.66,7.06,7.16,7.04,4.19-.02,7.09-3.16,7.09-7.15,0-4.35-3.5-7.23-7.32-7.17-3.55.05-7.06,2.94-6.94,7.28Z"></path><path class="cls-1" d="M420.74,212.28c-.13-7.08,5.96-13.18,13.16-12.84,5.7-.2,12.79,4.55,12.76,13.06-.02,7.38-5.93,12.99-13.23,12.87-8.03-.14-12.92-6.73-12.7-13.09ZM433.78,205.25c-4.08-.2-7.18,3.18-7.27,6.95-.08,3.72,2.59,7.33,7.14,7.34,3.88,0,7.13-2.7,7.16-7.1.03-4.86-3.83-7.31-7.03-7.2Z"></path><path class="cls-1" d="M111.24,199.45c6.97-.25,13.06,5.81,13.01,13.06-.04,6.51-5.18,12.85-12.98,12.87-7.37.02-12.92-5.69-12.96-12.85-.04-8.05,6.49-13.36,12.93-13.08ZM111.34,205.26c-3.64-.18-7.14,2.72-7.29,6.99-.12,3.44,2.47,7.26,7.23,7.32,4.01.05,7.07-3.14,7.14-7.14.07-3.66-2.96-7.26-7.08-7.16Z"></path><path class="cls-1" d="M515.5,212.68c0,3.59,0,7.18,0,10.77,0,.47-.1.94-.19,1.41-.07.34-.68.61-.98.44-.35-.19-.72-.36-1.01-.62-.66-.58-1.28-1.2-1.9-1.83-3.44-3.45-6.87-6.9-10.31-10.34-.27-.27-.62-.48-.94-.7-.17-.12-.29-.04-.4.13-.29.43-.25.91-.25,1.38,0,2.23.01,4.47.02,6.7,0,1.36,0,2.71,0,4.07,0,.39-.36.72-.77.78-1.27.19-2.55.14-3.82.05-.43-.03-.72-.31-.74-.77-.13-2.47-.32-4.94-.35-7.41-.06-4.23-.04-8.46,0-12.69.01-1.35.17-2.7.27-4.05.02-.3.37-.57.69-.53.31.05.66.08.89.26.57.44,1.08.95,1.6,1.44,3.17,3.04,6.32,6.09,9.49,9.12.75.72,1.53,1.39,2.32,2.07.08.07.31.06.42,0,.12-.07.23-.23.24-.36.04-.48.05-.95.05-1.43,0-2.87,0-5.75,0-8.62,0-.48.02-.96.04-1.43,0-.19.28-.48.46-.48.8-.02,1.59-.07,2.39-.06,2.93.03,2.76-.43,2.79,2.88.03,3.27,0,6.54,0,9.82Z"></path><path class="cls-1" d="M210.58,213.14c-.05,3.15-.11,6.73-.18,10.32,0,.47-.11.94-.19,1.41-.04.25-.53.52-.77.43-.29-.11-.62-.21-.85-.4-.49-.41-.93-.87-1.38-1.32-3.38-3.39-6.74-6.79-10.13-10.17-.62-.61-1.31-1.16-1.98-1.71-.06-.05-.38.07-.39.14-.05.39-.06.79-.06,1.19,0,3.35,0,6.7,0,10.05,0,.4-.04.79-.08,1.19-.02.28-.25.42-.46.5-.29.11-.62.18-.93.18-1.12.02-2.23.01-3.35,0-.41,0-.73-.31-.76-.76-.08-1.11-.18-2.23-.18-3.34-.02-6.62,0-13.24,0-19.85,0-.32.01-.64.07-.95.04-.24.22-.41.47-.47.57-.13,1.11-.07,1.56.34.59.54,1.18,1.07,1.75,1.63,3.22,3.09,6.43,6.2,9.65,9.28.57.55,1.18,1.06,1.8,1.56.08.06.28,0,.42-.05.05-.01.11-.11.12-.17.03-.48.06-.95.07-1.43,0-2.95,0-5.9,0-8.85,0-.48.03-.95.08-1.43.01-.13.14-.31.26-.35,1.55-.55,3.13-.52,4.7-.14.17.04.38.33.41.53.1.71.16,1.43.17,2.14.07,3.35.11,6.7.17,10.48Z"></path><path class="cls-1" d="M329.18,212.31c0-3.51,0-7.03,0-10.54,0-.48.03-.96.08-1.43.02-.12.19-.24.31-.34.05-.04.15-.04.23-.04,3.35-.13,6.69-.33,10.05-.08,3.38.26,6.11,1.72,8.27,4.26,5.96,7.02,2.56,17.19-5.07,20.03-1.2.45-2.43.78-3.73.78-3.03,0-6.07.01-9.1,0-.95,0-1.04-.12-1.04-1.15,0-3.83,0-7.66,0-11.5h0ZM334.72,212.12h0c0,2.23,0,4.47,0,6.7,0,.45.3.78.72.79,1.19.02,2.4.12,3.58.01,2.81-.26,4.67-1.8,5.67-4.44.44-1.16.46-2.34.42-3.54-.06-1.56-.61-2.96-1.57-4.19-.91-1.17-2.11-1.91-3.58-2.21-1.5-.31-3-.35-4.52-.12-.44.07-.74.36-.74.77,0,2.07,0,4.15,0,6.22Z"></path><path class="cls-1" d="M214.82,212.48c.03-3.03.05-6.07.11-9.1.02-1.03.14-2.07.24-3.1.01-.11.2-.24.34-.3.14-.06.31-.04.47-.05,1.59-.06,3.19-.12,4.78-.17,2.08-.07,4.16.02,6.21.31,2.19.3,4.1,1.29,5.73,2.78,2.88,2.62,4.25,5.87,4.22,9.78-.03,5.22-3.54,9.91-8.19,11.57-1.13.4-2.28.75-3.49.75-3.11.02-6.23.02-9.34.02-.45,0-.67-.26-.7-.76-.02-.24-.03-.48-.05-.72-.08-1.67-.2-3.35-.23-5.02-.04-1.99,0-3.99,0-5.99-.03,0-.07,0-.1,0ZM223.03,219.7s0-.03,0-.05c.64,0,1.28.05,1.91-.01,1.73-.17,3.24-.81,4.33-2.23,2.4-3.13,2.43-6.97-.04-10.14-.76-.97-1.76-1.63-2.94-1.93-1.63-.41-3.3-.52-4.97-.22-.42.07-.68.37-.68.82,0,4.22,0,8.44,0,12.65,0,.08,0,.16.01.24.03.46.29.75.72.78.56.03,1.11.05,1.67.08Z"></path><path class="cls-1" d="M684.83,211.62c.05-2.91.1-6.1.16-9.29.01-.64.09-1.27.14-1.9.02-.28.26-.38.47-.48.07-.03.16-.04.23-.04,3.19-.09,6.38-.22,9.57.03,2.64.2,4.46,1.63,5.68,3.84,1.28,2.3.77,4.83-.91,6.64-.48.52-1.07.95-1.61,1.42-.15.14-.12.49.06.6.53.35,1.09.67,1.59,1.06,1.34,1.03,2.07,2.4,2.12,4.1.03.96-.04,1.9-.37,2.82-.72,2.05-2.27,3.22-4.16,4.03-.65.28-1.35.47-2.09.47-3.27,0-6.54,0-9.82,0-.28,0-.6-.29-.64-.61-.09-.87-.21-1.74-.23-2.62-.08-3.27-.13-6.54-.19-10.09ZM690.79,217.13s-.03,0-.04,0c0,.63,0,1.27,0,1.9,0,.5.23.76.69.75,1.03-.01,2.06,0,3.08-.09.87-.08,1.41-.64,1.69-1.46.25-.71.19-1.39-.09-2.08-.29-.72-.8-1.16-1.56-1.31-1.1-.21-2.2-.22-3.31-.05-.21.03-.47.13-.47.44,0,.63,0,1.26,0,1.89ZM690.74,207.38s0,0,0,0c0,.71-.03,1.43.02,2.13.01.17.26.46.42.47.79.06,1.59.1,2.37.03,1.06-.09,1.86-.68,2.18-1.87.42-1.54-.41-2.97-1.98-3.16-.86-.1-1.74-.05-2.61-.02-.2,0-.4.24-.41.51,0,.63,0,1.27,0,1.9Z"></path><path class="cls-1" d="M565.59,212.38c.03-2.55.06-5.11.1-7.66.02-.96.03-1.92.14-2.87.25-2.1.02-1.9,2.12-1.91.96,0,1.92,0,2.87.02.37,0,.61.22.65.55.14,1.43.31,2.86.18,4.3-.11,1.28-.08,2.55.05,3.83.02.15.06.34.15.43.09.09.34.14.41.08.3-.26.58-.54.83-.85,1.79-2.25,3.64-4.46,5.33-6.77,1.01-1.38,2.21-1.95,3.89-1.73.94.12,1.91.08,2.87.12.36.01.54.33.38.66-.41.87-.92,1.68-1.52,2.43-1.79,2.25-3.6,4.48-5.33,6.78-1.87,2.48-1.88,1.64,0,4.11,2.02,2.67,4.11,5.29,6.17,7.95.44.57.86,1.15,1.25,1.75.32.49-.03,1.26-.59,1.29-1.03.06-2.07.09-3.11.09-2.35-.02-2.14.33-3.75-1.85-1.76-2.37-3.53-4.74-5.3-7.1-.28-.38-.62-.72-.94-1.07-.13-.15-.28-.14-.42,0-.05.05-.15.1-.15.15-.07,1.35-.13,2.71-.19,4.06-.08,1.75-.14,3.5-.23,5.26-.01.23-.18.46-.46.46-1.51,0-3.02-.01-4.54-.04-.11,0-.3-.17-.32-.28-.14-.78-.3-1.57-.35-2.36-.09-1.27-.12-2.55-.14-3.83-.02-2,0-3.99,0-5.99-.02,0-.04,0-.06,0Z"></path><path class="cls-1" d="M164.35,208.49c0-2.31,0-4.63,0-6.94,0-.32.03-.64.05-.96.03-.37.24-.63.56-.63,1.51,0,3.03,0,4.54.02.28,0,.57.32.58.64.04.96.1,1.91.1,2.87.01,3.51,0,7.02,0,10.53,0,.64-.01,1.28.04,1.91.1,1.27.69,2.29,1.81,2.92.99.56,2.04.89,3.2.61.39-.09.79-.15,1.16-.28,1.41-.47,2.3-1.4,2.48-2.91.07-.55.08-1.11.08-1.67,0-1.83,0-3.67,0-5.5.02-2.39.06-4.78.11-7.17,0-.48.07-.95.11-1.43.03-.33.28-.54.65-.55,1.36,0,2.71-.01,4.07,0,.57,0,.84.24.88.88.07,1.11.12,2.23.13,3.34.02,3.51-.03,7.02.03,10.52.02,1.54-.13,3.02-.7,4.45-1.08,2.66-3,4.48-5.67,5.48-3.99,1.49-7.7.93-10.99-1.79-2.06-1.7-3.18-3.97-3.23-6.68-.04-2.55,0-5.1,0-7.66,0,0,0,0,.01,0Z"></path><path class="cls-1" d="M325.02,208.67c0,2.15,0,4.31,0,6.46,0,1.03,0,2.06-.3,3.08-.88,2.94-2.77,4.99-5.53,6.23-2.66,1.19-5.41,1.32-8.16.34-3.8-1.35-6.35-4.45-6.58-8.83-.1-1.99-.06-3.99-.06-5.98,0-2.55.02-5.1.04-7.66,0-.56.04-1.11.09-1.67.03-.41.37-.69.82-.69,1.44,0,2.87,0,4.31,0,.3,0,.47.2.51.41.1.55.15,1.11.16,1.66.05,3.11.09,6.22.11,9.33,0,1.11-.09,2.23-.08,3.34,0,.63.07,1.28.22,1.89.34,1.45,1.29,2.3,2.72,2.71,1.21.35,2.38.2,3.52-.19.86-.3,1.5-.92,1.88-1.74.27-.58.48-1.18.49-1.84,0-.64.03-1.28.03-1.91,0-3.67,0-7.34,0-11.01,0-.64,0-1.28.02-1.91,0-.39.19-.62.51-.69,1.5-.36,3-.33,4.51-.06.43.07.65.34.68.84.03.56.05,1.11.05,1.67,0,2.07,0,4.15,0,6.22.01,0,.03,0,.04,0Z"></path><path class="cls-1" d="M401.68,209c0,2.16-.07,4.31.02,6.46.18,4.35-2.98,8.39-7.54,9.56-2.41.62-4.75.48-7.03-.48-3.65-1.54-5.57-4.37-6-8.26-.06-.55-.04-1.12-.04-1.68,0-3.91,0-7.82,0-11.74,0-.24,0-.48,0-.72.07-2.3-.03-2.24,2.27-2.22,1.04,0,2.07.03,3.11.08.12,0,.3.17.32.29.08.47.16.94.16,1.42.02,4.07.02,8.14.02,12.21,0,.96-.03,1.91.28,2.84.43,1.33,1.32,2.12,2.64,2.52,1.21.36,2.39.22,3.53-.16.94-.31,1.67-.96,2.01-1.92.21-.6.34-1.23.42-1.86.07-.55.03-1.12.03-1.67,0-3.83,0-7.66,0-11.5,0-.56-.01-1.12.06-1.67.02-.17.28-.45.44-.46,1.51-.03,3.03-.03,4.54-.02.3,0,.62.3.64.6.05.72.11,1.43.12,2.15.02,2.08,0,4.15,0,6.23Z"></path><path class="cls-1" d="M705.49,211.99c.04-3.35.08-6.7.13-10.05,0-.48.06-.95.11-1.43.03-.26.2-.43.44-.49.23-.06.47-.08.71-.08,4.63,0,9.26,0,13.88,0,.16,0,.33,0,.46.07.13.06.3.21.31.32.05,1.11.08,2.23.08,3.34,0,1.06-.02,1.24-1.15,1.4-.39.05-.79.09-1.19.09-2.23-.02-4.46-.06-6.69-.08-.24,0-.47.04-.71.06-.15.01-.49.32-.49.45-.01.96-.03,1.91-.03,2.87,0,.77.21.98.99.98,1.91.01,3.83,0,5.75.01.32,0,.64,0,.96.03.42.02.79.33.85.7.06.39.14.79.14,1.19.01.88,0,1.75-.03,2.63-.02.54-.32.81-.94.81-1.99,0-3.99,0-5.98,0-.32,0-.64,0-.96.01-.48.02-.75.26-.76.71-.01,1.04-.02,2.07,0,3.11,0,.75.24.99,1.01,1,1.83.02,3.67.01,5.5.03,1.04,0,2.07.04,3.11.07.42.01.72.34.73.78.02.64.03,1.28.02,1.91,0,2.18.21,2.32-2.16,2.43-4.22.21-8.45.22-12.68.05-.16,0-.34,0-.46-.08-.19-.11-.45-.27-.49-.45-.13-.62-.24-1.25-.25-1.89-.07-2.39-.1-4.79-.14-7.18-.02-1.12,0-2.23,0-3.35-.01,0-.03,0-.04,0Z"></path><path class="cls-1" d="M541.13,212.93c-.05-6.31,3.72-11.65,9.76-13.13,4.28-1.05,8.24-.23,11.62,2.77.37.32.4.85.12,1.3-.65,1.03-1.48,1.88-2.46,2.59-.36.26-.71.27-1.11.08-1.37-.66-2.78-1.17-4.29-1.45-1.69-.31-3.19.08-4.5,1.12-3.77,2.97-3.85,8.36-.72,11.4,1.35,1.31,2.93,1.9,4.77,1.79,1.37-.08,2.67-.44,3.91-1.04.43-.21.88-.49,1.32-.49.59,0,.9.6,1.3.98.64.61,1.24,1.24,1.86,1.87.19.19.2.67.04.9-.19.26-.36.53-.58.76-.79.81-1.72,1.43-2.74,1.89-7.53,3.34-16.41-1.14-18.09-9.19-.18-.85-.17-1.74-.2-2.14Z"></path><path class="cls-1" d="M538.64,224.96c-.56,0-1.12,0-1.67,0-.71.01-1.24-.33-1.6-.88-.43-.66-.8-1.37-1.17-2.07-.25-.46-.57-.74-1.12-.74-1.28,0-2.55,0-3.83,0-1.44,0-2.87,0-4.31.02-.4,0-.76.2-.95.61-.31.65-.63,1.29-.95,1.93-.34.7-.89,1.14-1.68,1.14-1.35,0-2.7-.07-4.06-.11-.21,0-.27-.11-.27-.32.03-.82.42-1.53.74-2.25,1.29-2.83,2.6-5.64,3.91-8.46,2.07-4.48,4.15-8.96,6.22-13.44.07-.14.17-.27.25-.41.27-.49,1.07-.61,1.45-.2.16.17.34.35.46.55.27.49.51.99.75,1.49,3.16,6.78,6.32,13.57,9.47,20.36.33.72.58,1.48.86,2.22.07.18-.16.5-.36.51-.72.04-1.43.08-2.15.11,0-.02,0-.04,0-.07ZM528.98,210.78c-.87,1.37-1.46,2.85-2.08,4.3-.06.14-.08.31-.12.46-.1.35.09.68.4.7.32.01.64.05.95.03,1.1-.06,2.21.17,3.29-.16,0-1.17-.73-2.06-1.13-3.08-.24-.59-.49-1.18-.78-1.74-.1-.2-.33-.33-.52-.51Z"></path><path class="cls-1" d="M595.29,199.48c2.85-.13,5.29.95,7.53,2.59.27.2.42.79.27,1.1-.56,1.15-1.12,2.3-2.15,3.12-.24.19-.55.3-.88.1-.34-.21-.7-.38-1.05-.57-1.28-.7-2.67-1.05-4.1-1.21-.74-.08-1.52.31-1.83.9-.33.64-.13,1.65.49,2.18.42.36.87.7,1.35.99.89.53,1.81,1.01,2.72,1.52.84.46,1.68.92,2.51,1.4.84.48,1.59,1.08,2.2,1.83,1.29,1.56,1.81,3.36,1.47,5.36-.56,3.36-2.59,5.35-5.84,6.22-3.55.95-6.79.25-9.83-1.69-.2-.13-.39-.28-.57-.44-.4-.35-.47-.81-.38-1.31.03-.16.05-.33.13-.46.53-.89,1.06-1.78,1.61-2.66.16-.27.56-.34.85-.18.56.3,1.1.64,1.68.91,1.31.61,2.68,1.03,4.15.99.7-.02,1.24-.37,1.55-.97.59-1.16.37-2.08-.52-2.78-.69-.54-1.43-1.02-2.18-1.48-1.09-.67-2.22-1.26-3.3-1.94-.74-.46-1.51-.92-2.15-1.51-1.78-1.63-2.5-3.64-2-6.05.69-3.27,2.82-5.34,6.13-5.87.31-.05.63-.08.95-.1.4-.02.8,0,1.2,0Z"></path><path class="cls-1" d="M482,199.41c3.08-.03,5.42.89,7.58,2.35.07.04.12.1.18.15.6.47.73,1.06.33,1.68-.43.67-.88,1.33-1.34,1.98-.23.32-.47.64-.75.93-.09.09-.31.15-.42.1-.37-.15-.71-.36-1.06-.55-1.27-.68-2.62-1.16-4.01-1.53-.37-.1-.81-.11-1.17-.01-1.13.3-2.1,1.8-.88,2.99.45.44.98.82,1.52,1.14,1.17.68,2.37,1.3,3.56,1.97.76.43,1.52.88,2.26,1.34.76.46,1.39,1.07,1.92,1.78.74.98,1.2,2.07,1.23,3.31.03,1.12,0,2.22-.38,3.3-.81,2.28-2.45,3.69-4.68,4.45-4.01,1.36-7.7.61-11.09-1.82-.06-.05-.12-.11-.18-.16-.36-.32-.52-.86-.29-1.3.43-.85.89-1.69,1.36-2.52.42-.73.71-1.11,1.69-.45,1.28.86,2.78,1.17,4.24,1.54.31.08.63.08.95.1.83.05,1.53-.41,1.87-1.22.33-.77.2-1.73-.34-2.23-.35-.32-.72-.63-1.12-.88-1.08-.68-2.17-1.34-3.26-2-.61-.37-1.24-.72-1.85-1.1-.47-.3-.94-.61-1.38-.95-2.26-1.78-2.9-4.13-2.27-6.84.57-2.42,2.07-4.07,4.43-4.94,1.22-.45,2.48-.56,3.32-.61Z"></path><path class="cls-1" d="M456.37,199.44c3.07.04,5.49.92,7.57,2.69.18.15.34.34.46.54.07.12.13.35.07.45-.74,1.13-1.49,2.25-2.28,3.35-.12.17-.38.25-.64.09-.69-.4-1.38-.79-2.09-1.15-.85-.43-1.74-.79-2.69-.95-.73-.12-1.43-.02-2.04.44-.41.31-.61.74-.56,1.24.08.74.34,1.4.98,1.83.59.4,1.19.8,1.82,1.15,1.18.66,2.39,1.27,3.56,1.95.82.48,1.64.99,2.36,1.61,1.47,1.26,2.23,2.88,2.21,4.83-.01.88-.04,1.75-.32,2.6-.66,2-1.95,3.46-3.88,4.3-2.82,1.22-5.7,1.37-8.61.32-1.13-.41-2.19-.96-3.16-1.66-.75-.54-.9-1.05-.56-1.84.41-.96.94-1.84,1.55-2.68.24-.32.69-.44,1.07-.21,1.38.85,2.94,1.19,4.47,1.64.3.09.62.13.94.17.83.09,1.55-.32,1.95-1.09.42-.82.3-1.86-.35-2.42-.48-.41-1-.8-1.53-1.13-1.15-.72-2.33-1.38-3.48-2.09-.81-.5-1.65-.99-2.39-1.57-3.72-2.92-3.33-8.28.28-10.9,1.11-.81,2.36-1.32,3.75-1.43.63-.05,1.27-.07,1.57-.09Z"></path><path class="cls-1" d="M617.89,214.71c0-2.87,0-5.75,0-8.62,0-.64-.24-.91-.8-.92-.72-.01-1.44,0-2.15-.01-.56,0-1.12,0-1.68-.02-.49-.01-.89-.37-.97-.88-.22-1.35-.2-2.7,0-4.05.02-.12.19-.29.31-.31.47-.08.94-.13,1.41-.14,3.51-.01,7.02-.01,10.54,0,1.44,0,2.87.04,4.31.06.16,0,.46.32.46.49,0,1.43,0,2.86-.03,4.29,0,.11-.17.29-.29.31-.38.08-.78.13-1.17.14-1.12.03-2.23.03-3.35.06-.42.01-.73.33-.74.75-.02.72-.02,1.44-.02,2.15,0,4.79,0,9.58,0,14.37,0,.64-.02,1.28-.03,1.91,0,.22-.24.5-.42.5-1.51.02-3.03.03-4.54.03-.39,0-.71-.36-.74-.79-.04-.72-.08-1.43-.08-2.15,0-2.39,0-4.79,0-7.18h0Z"></path><path class="cls-1" d="M412.22,222.97c-.14,2.98-.8,5.34-2.1,7.5-.41.68-.91,1.3-1.39,1.93-.07.09-.32.13-.42.07-.42-.23-.81-.5-1.2-.78-.91-.65-.92-.75-.38-1.74.46-.84.89-1.69,1.33-2.53.34-.65.49-1.35.42-2.08-.01-.12-.15-.31-.26-.33-.47-.07-.95-.06-1.42-.13-1.59-.22-2.55-1.26-2.7-2.88-.26-2.83,2.31-4.86,5.03-3.97,1.31.43,2.19,1.28,2.63,2.57.31.91.53,1.84.47,2.36Z"></path><path class="cls-1" d="M718.29,193.99c-.09.17-.14.33-.24.44-.1.11-.24.21-.38.27-2.09.96-4.18,1.91-6.27,2.86-.14.06-.31.1-.46.09-.15,0-.37-.04-.43-.14-.35-.62-.68-1.25-.99-1.9-.05-.1.03-.31.11-.43.08-.13.22-.23.35-.32,1.96-1.2,3.93-2.4,5.89-3.59.43-.26.67-.19.96.27.5.81.98,1.63,1.46,2.43Z"></path></svg>