<svg xmlns="http://www.w3.org/2000/svg" id="Camada_1" data-name="Camada 1" viewBox="0 0 1133.86 283.46"><defs><style>      .cls-1 {        fill: #fff;        fill-rule: evenodd;        stroke-width: 0px;      }    </style></defs><polygon class="cls-1" points="676.2 138.61 706.93 138.61 723.49 106.34 740.24 106.34 699.43 185.98 682.68 185.98 699.7 152.7 668.98 152.7 651.95 185.98 635.21 185.98 676.01 106.34 692.76 106.34 676.2 138.61"></polygon><path class="cls-1" d="M788.84,120.2c-3.12,0-6.04.52-8.76,1.33-2.71.81-5.23,2.03-7.55,3.66-2.32,1.63-4.48,3.57-6.47,5.82-1.99,2.26-3.87,4.86-5.63,7.82l51.9-.88-7.17,13.87-51.88.77c-.71,1.4-1.35,2.79-1.91,4.16-.56,1.37-.99,2.68-1.3,3.94-.4,1.33-.58,2.59-.54,3.77.04,1.18.27,2.29.68,3.33.36.96.86,1.78,1.51,2.44.65.67,1.5,1.11,2.56,1.33,1.05.22,2.18.39,3.37.5,1.19.11,2.38.17,3.56.17h.78c.07,0,.15,0,.22,0l32.94-.88-7.06,13.87-33.69.77c-2.29.05-4.49-.09-6.59-.28-2.1-.18-4.09-.5-5.98-.94-1.91-.37-3.57-1.04-5-2-1.43-.96-2.7-2.18-3.82-3.66-1.27-1.77-2.13-3.77-2.58-5.99-.46-2.22-.44-4.62.05-7.21.49-2.59,1.15-5.23,2-7.93.85-2.7,1.97-5.42,3.38-8.15.15-.3.27-.59.38-.89.11-.3.24-.59.38-.89.13-.22.27-.48.41-.78.15-.3.29-.59.44-.89.15-.3.31-.57.48-.83.17-.26.33-.54.48-.83.15-.3.31-.57.48-.83.17-.26.33-.54.48-.83,3.61-6.29,7.46-11.74,11.55-16.36,4.09-4.62,8.38-8.41,12.88-11.37,4.5-2.96,9.4-5.18,14.72-6.65,5.32-1.48,11.01-2.2,17.07-2.22l33.27-.11-7.17,13.87h-32.91Z"></path><path class="cls-1" d="M913.87,185.97c-2.51,0-4.91-.09-7.2-.28-2.28-.18-4.45-.46-6.51-.83-1.98-.37-3.67-1.15-5.09-2.33-1.41-1.18-2.54-2.77-3.38-4.77-.77-1.7-1.16-3.48-1.19-5.32-.03-1.85.29-3.81.94-5.88.66-2.07,1.43-4.16,2.31-6.27.89-2.11,1.9-4.27,3.03-6.49l24.39-47.48h16.75l-22.47,43.7c-1.94,3.7-3.43,6.97-4.46,9.82-1.03,2.85-1.63,5.23-1.81,7.16-.12,2,.87,3.48,2.96,4.44,2.09.96,5.36,1.46,9.8,1.44l25.11-.11-6.67,13.2h-26.52Z"></path><polygon class="cls-1" points="966.41 120.31 973.57 106.45 1042.34 106.45 1035.18 120.31 1009.33 120.31 975.72 185.98 958.42 185.98 992.03 120.31 966.41 120.31"></polygon><polygon class="cls-1" points="1053.7 138.61 1084.42 138.61 1100.98 106.34 1117.73 106.34 1076.92 185.98 1060.18 185.98 1077.2 152.7 1046.48 152.7 1029.45 185.98 1012.7 185.98 1053.51 106.34 1070.26 106.34 1053.7 138.61"></polygon><path class="cls-1" d="M883.15,112.83l-6.44,73.14h-18.64l1.44-11.78,2.78-21.39h.03l.27-2.3.66-5.05-.06.02,2.75-23.28-26.7,29.89h-.01s-13.78,15.3-13.78,15.3h.01s-16.4,18.59-16.4,18.59h-17.64l68.72-73.54c3.96-4.71,16.81-9.63,22.17-2.59.88,1.16.97,1.6.84,2.99"></path><polygon class="cls-1" points="269.82 120.18 276.99 106.32 345.75 106.32 338.59 120.18 312.74 120.18 279.13 185.85 261.83 185.85 295.44 120.18 269.82 120.18"></polygon><path class="cls-1" d="M339.57,128.39c2.41-2.88,4.94-5.51,7.59-7.88,2.65-2.37,5.38-4.47,8.2-6.32,2.82-1.85,5.8-3.44,8.93-4.77,3.14-1.33,6.42-2.36,9.86-3.11,1.24-.22,2.47-.44,3.71-.66,1.24-.22,2.5-.41,3.79-.55,1.22-.15,2.45-.26,3.69-.33,1.24-.08,2.45-.11,3.63-.11,1.26,0,2.49.02,3.7.05,1.21.04,2.47.13,3.76.28,1.22.15,2.38.33,3.47.56,1.09.22,2.15.52,3.17.89,2.63.74,4.82,1.76,6.57,3.05,1.75,1.3,3.11,2.87,4.06,4.71.88,1.85,1.41,3.97,1.6,6.38.19,2.4-.04,5.05-.67,7.93-.33,1.33-.72,2.7-1.17,4.1-.45,1.4-.94,2.85-1.45,4.33-.58,1.48-1.21,2.96-1.86,4.44-.66,1.48-1.35,2.96-2.09,4.44-.84,1.63-1.69,3.22-2.55,4.77-.86,1.55-1.77,3.07-2.72,4.55-1.05,1.55-2.08,3.05-3.1,4.49-1.02,1.44-2.06,2.83-3.13,4.16-2.43,2.96-4.97,5.66-7.64,8.1-2.67,2.44-5.41,4.59-8.23,6.43-2.89,1.85-5.9,3.4-9.02,4.66-3.12,1.26-6.35,2.22-9.69,2.88-1.39.22-2.74.44-4.05.66-1.31.22-2.6.37-3.88.44-1.37.15-2.72.26-4.07.33-1.35.07-2.65.11-3.91.11-1.18,0-2.32-.04-3.41-.11-1.09-.08-2.13-.19-3.14-.33-1.15-.15-2.21-.33-3.19-.55-.98-.22-1.97-.41-2.97-.55-2.65-.67-4.89-1.63-6.73-2.88-1.84-1.26-3.23-2.81-4.18-4.66-.95-1.85-1.52-3.99-1.7-6.43-.18-2.44.06-5.14.71-8.1.23-1.26.58-2.59,1.03-3.99.46-1.4.95-2.88,1.48-4.44.51-1.48,1.14-2.99,1.89-4.55.75-1.55,1.5-3.11,2.25-4.66.42-.81.83-1.59,1.24-2.33.4-.74.85-1.51,1.35-2.33.4-.74.85-1.5,1.34-2.27.49-.78.97-1.53,1.44-2.27.97-1.55,1.96-3.03,2.97-4.44,1.01-1.4,2.04-2.74,3.09-3.99l.03-.11ZM354.05,134.05c-.42.52-.83,1.04-1.21,1.55-.39.52-.74,1-1.08,1.44-.35.52-.68,1.03-.99,1.55-.31.52-.64,1.04-.99,1.55-.6.96-1.2,1.94-1.77,2.94-.58,1-1.14,2.02-1.69,3.05-.55,1.03-1.06,2.07-1.54,3.1-.48,1.04-.91,2.07-1.32,3.1-.31.96-.62,1.94-.94,2.94-.32,1-.63,1.98-.94,2.94-.49,1.7-.77,3.29-.84,4.77-.07,1.48.04,2.85.33,4.1.28,1.26.85,2.35,1.69,3.27.85.92,1.97,1.68,3.38,2.27.54.22,1.1.41,1.69.55.59.15,1.2.3,1.83.44.57.08,1.2.15,1.89.22.68.07,1.4.11,2.13.11.67,0,1.38-.04,2.14-.11.76-.08,1.52-.15,2.27-.22.39-.07.76-.15,1.11-.22.35-.07.72-.15,1.11-.22.39-.07.76-.17,1.12-.28.36-.11.73-.21,1.12-.28,2-.59,3.9-1.35,5.72-2.27,1.82-.93,3.55-2.02,5.18-3.27,1.57-1.26,3.07-2.62,4.5-4.1,1.44-1.48,2.77-3.07,4-4.77.75-.96,1.47-1.94,2.16-2.94.69-1,1.3-1.98,1.83-2.94.62-1.03,1.25-2.07,1.87-3.1.62-1.03,1.21-2.07,1.76-3.1.55-1.04,1.04-2.05,1.47-3.05.43-1,.84-1.98,1.22-2.94.4-1.03.78-2.05,1.14-3.05.36-1,.65-1.98.89-2.94.49-1.7.79-3.29.89-4.77.1-1.48.01-2.85-.27-4.1-.36-1.26-.95-2.37-1.79-3.33-.84-.96-1.97-1.7-3.39-2.22-.54-.22-1.1-.43-1.68-.61-.58-.19-1.16-.31-1.73-.39-.7-.15-1.4-.24-2.09-.28-.69-.04-1.37-.06-2.04-.06-.74,0-1.47.02-2.18.06-.71.04-1.42.13-2.12.28-.76.07-1.53.2-2.31.39-.78.18-1.54.39-2.26.61-1.99.59-3.88,1.35-5.66,2.27-1.78.92-3.45,2.02-5.02,3.27-1.56,1.26-3.08,2.62-4.55,4.1-1.47,1.48-2.86,3.07-4.16,4.77l.14-.11Z"></path><polygon class="cls-1" points="424.22 120.18 431.39 106.32 500.16 106.32 492.99 120.18 467.14 120.18 433.53 185.85 416.23 185.85 449.84 120.18 424.22 120.18"></polygon><path class="cls-1" d="M580.07,185.84c-2.51,0-4.91-.09-7.2-.28-2.28-.18-4.45-.46-6.51-.83-1.98-.37-3.67-1.15-5.09-2.33-1.41-1.18-2.54-2.77-3.38-4.77-.77-1.7-1.16-3.48-1.19-5.32-.03-1.85.29-3.81.94-5.88.66-2.07,1.43-4.16,2.31-6.27.89-2.11,1.9-4.27,3.03-6.49l24.39-47.48h16.75l-22.47,43.7c-1.94,3.7-3.43,6.97-4.46,9.82-1.03,2.85-1.63,5.23-1.81,7.16-.12,2,.87,3.48,2.96,4.44,2.09.96,5.36,1.46,9.8,1.44l25.11-.11-6.67,13.2h-26.52Z"></path><path class="cls-1" d="M548.57,112.7l-6.44,73.14h-18.63l1.44-11.78,2.78-21.39h.03l.27-2.3.66-5.05-.06.02,2.75-23.28-26.7,29.89h-.01s-13.78,15.3-13.78,15.3h.01s-16.4,18.59-16.4,18.59h-17.64l68.72-73.54c3.96-4.71,16.8-9.63,22.17-2.59.88,1.16.97,1.6.84,2.99"></path><path class="cls-1" d="M73.11,216.51h.18c-.03.06-.06.11-.09.17-5.4,10.48,1.19,19.04,14.67,19.04s28.87-8.55,34.27-19.04c.35-.68.65-1.35.9-2.01l48.82-94.83c.43-.66.83-1.33,1.18-2.01,5.4-10.48-1.19-19.04-14.67-19.04s-28.7,8.46-34.18,18.87h-.18l-50.9,98.86Z"></path><path class="cls-1" d="M137.27,216.51h.18c-.03.06-.06.11-.09.17-5.4,10.48,1.19,19.04,14.67,19.04s28.87-8.55,34.27-19.04c.35-.68.65-1.35.9-2.01l48.82-94.83c.43-.66.83-1.33,1.18-2.01,5.4-10.48-1.19-19.04-14.67-19.04s-28.7,8.46-34.18,18.87h-.18l-50.9,98.86Z"></path><path class="cls-1" d="M225.96,168c-403.2-8.95-139.86-197.17,158.15-96.64C197.6,32.04,5.47,112.77,100.74,150.21c11.92,4.69,28.42,8.73,50.07,11.82,20.34,2.91,45.22,4.98,75.15,5.96"></path><path class="cls-1" d="M1023.74,204.29h-22.71v4.25h8.84v28.64h4.98v-28.64h8.89v-4.25ZM982.91,204.29h-4.59v12.12c0,5.25.13,9.46.51,13.93l-.13.04c-1.42-3.48-3.26-7.27-5.32-10.88l-8.59-15.22h-5.41v32.89h4.59v-12.29c0-5.76-.09-10.02-.34-14.19l.17-.04c1.5,3.7,3.48,7.57,5.45,11.13l8.63,15.39h5.02v-32.89ZM939.9,233.02h-12.92v-10.91h11.51v-4.12h-11.51v-9.53h12.19v-4.16h-17.17v32.89h17.9v-4.16ZM899.63,204.29h-6.22l-4.77,14.43c-1.29,4.08-2.32,7.81-3.13,11.33h-.13c-.82-3.61-1.8-7.26-3-11.29l-4.64-14.47h-6.18l-2.23,32.89h4.64l.73-13.57c.26-4.59.52-9.79.6-13.87h.13c.82,3.95,1.98,8.24,3.31,12.54l4.51,14.6h3.74l4.89-14.9c1.37-4.16,2.66-8.37,3.65-12.24h.13c-.04,4.08.21,9.14.43,13.61l.73,13.82h4.81l-1.97-32.89ZM835.57,208.29c.64-.13,1.8-.3,3.35-.3,3.99,0,6.74,2.02,6.74,6.01,0,4.21-2.75,6.57-7.3,6.57-1.16,0-2.06-.04-2.79-.26v-12.02ZM830.63,237.18h4.94v-12.88c.82.17,1.76.21,2.79.21,5.92,0,12.28-2.75,12.28-10.73,0-3.01-1.12-5.5-2.96-7.08-1.97-1.76-5.02-2.62-9.06-2.62-3.39,0-6.01.3-7.99.64v32.46ZM804.4,237.18h4.98v-32.89h-4.98v32.89ZM783.19,204.29h-4.98v19.91c0,6.54-2.58,9.37-6.7,9.37-3.78,0-6.48-2.79-6.48-9.37v-19.91h-4.98v19.61c0,9.8,4.55,13.75,11.29,13.75s11.85-4.12,11.85-13.88v-19.48ZM726.74,207.9c5.84,0,8.59,6.35,8.59,12.71,0,7.04-3.01,12.97-8.72,12.97s-8.67-6.01-8.67-12.71,2.75-12.97,8.8-12.97ZM732.45,235.81c4.77-1.85,8.11-7.13,8.11-15.41,0-9.53-5.07-16.57-13.65-16.57s-14.21,6.78-14.21,17.17,6.05,16.4,13.27,16.66c.6,0,1.24.21,1.89.52,3.52,1.37,7.51,2.79,11.59,3.95l1.5-3.99c-2.53-.56-5.67-1.29-8.5-2.15v-.17ZM694.97,233.02h-12.92v-10.91h11.51v-4.12h-11.51v-9.53h12.19v-4.16h-17.17v32.89h17.9v-4.16ZM632.03,205.32c-1.42-.73-3.78-1.5-6.91-1.5-6.53,0-10.69,3.91-10.69,9.1,0,4.46,3.31,7.43,8.2,9.4,3.91,1.63,5.58,3.35,5.58,6.14,0,2.96-2.19,4.98-6.1,4.98-2.7,0-5.37-.86-7.13-1.93l-1.12,4.16c1.59,1.07,4.85,1.97,7.94,1.97,7.38,0,11.46-4.12,11.46-9.62,0-4.51-2.53-7.38-7.81-9.7-4.16-1.8-6.01-3.18-6.01-5.97,0-2.1,1.63-4.38,5.54-4.38,2.7,0,4.77.86,5.84,1.46l1.2-4.12ZM594.47,205.32c-1.42-.73-3.78-1.5-6.91-1.5-6.53,0-10.69,3.91-10.69,9.1,0,4.46,3.31,7.43,8.2,9.4,3.91,1.63,5.58,3.35,5.58,6.14,0,2.96-2.19,4.98-6.1,4.98-2.7,0-5.37-.86-7.13-1.93l-1.12,4.16c1.59,1.07,4.85,1.97,7.94,1.97,7.38,0,11.46-4.12,11.46-9.62,0-4.51-2.53-7.38-7.81-9.7-4.16-1.8-6.01-3.18-6.01-5.97,0-2.1,1.63-4.38,5.54-4.38,2.7,0,4.77.86,5.84,1.46l1.2-4.12ZM558.4,233.02h-12.92v-10.91h11.51v-4.12h-11.51v-9.53h12.19v-4.16h-17.17v32.89h17.9v-4.16ZM519.21,204.29h-4.59v12.12c0,5.25.13,9.46.52,13.93l-.13.04c-1.42-3.48-3.26-7.27-5.32-10.88l-8.59-15.22h-5.41v32.89h4.59v-12.29c0-5.76-.09-10.02-.34-14.19l.17-.04c1.5,3.7,3.48,7.57,5.45,11.13l8.63,15.39h5.02v-32.89ZM476.83,232.97h-12.66v-28.68h-4.98v32.89h17.64v-4.21ZM440.34,232.97h-12.66v-28.68h-4.98v32.89h17.64v-4.21ZM403.21,233.02h-12.92v-10.91h11.51v-4.12h-11.51v-9.53h12.19v-4.16h-17.17v32.89h17.9v-4.16ZM361.82,204.29l-3.52,15.52c-.86,4.01-1.63,7.71-2.19,11.57h-.13c-.47-3.78-1.25-7.56-2.06-11.43l-3.43-15.66h-4.98l-3.74,15.57c-.94,4.17-1.89,8.04-2.4,11.56h-.09c-.56-3.39-1.29-7.43-2.1-11.48l-3.26-15.66h-5.28l7.68,32.89h5.24l3.91-15.86c.99-3.93,1.72-7.16,2.23-10.68h.13c.39,3.52,1.03,6.83,1.89,10.66l3.56,15.87h5.19l8.42-32.89h-5.07Z"></path></svg>